<?xml version="1.0" encoding="UTF-8" standalone="no"?>
<!-- Created with Inkscape (http://www.inkscape.org/) -->

<svg
   width="42.071754mm"
   height="5.2125969mm"
   viewBox="0 0 42.071754 5.2125969"
   version="1.1"
   id="svg5"
   inkscape:version="1.2.2 (732a01da63, 2022-12-09)"
   sodipodi:docname="fadølsanlæg.svg"
   xmlns:inkscape="http://www.inkscape.org/namespaces/inkscape"
   xmlns:sodipodi="http://sodipodi.sourceforge.net/DTD/sodipodi-0.dtd"
   xmlns="http://www.w3.org/2000/svg"
   xmlns:svg="http://www.w3.org/2000/svg">
  <sodipodi:namedview
     id="namedview7"
     pagecolor="#ffffff"
     bordercolor="#000000"
     borderopacity="0.25"
     inkscape:showpageshadow="2"
     inkscape:pageopacity="0.0"
     inkscape:pagecheckerboard="0"
     inkscape:deskcolor="#d1d1d1"
     inkscape:document-units="mm"
     showgrid="false"
     inkscape:zoom="4.6823232"
     inkscape:cx="60.012944"
     inkscape:cy="26.48258"
     inkscape:window-width="1600"
     inkscape:window-height="837"
     inkscape:window-x="-8"
     inkscape:window-y="-8"
     inkscape:window-maximized="1"
     inkscape:current-layer="layer1" />
  <defs
     id="defs2" />
  <g
     inkscape:label="Lag 1"
     inkscape:groupmode="layer"
     id="layer1"
     transform="translate(-49.452951,-101.99155)">
    <g
       aria-label="fadolsanl eg"
       id="text113"
       style="font-size:3.175px;font-family:'Drunk Handwriting';-inkscape-font-specification:'Drunk Handwriting';stroke-width:0.264583" />
    <g
       id="g387"
       style="fill:#ffffff;fill-opacity:1">
      <path
         d="m 52.528732,102.40483 q 0.396875,0.0372 0.396875,0.32556 v 0.0357 q 0,0.22634 -1.5906,0.54415 -1.122412,0.38758 -1.122412,0.65113 0.31936,0.65112 0.578259,0.65112 0.905371,0.10852 0.905371,0.28835 v 0.10852 q 0,0.14573 -0.615466,0.21704 v 0.0729 q 0.181384,0.2558 0.289905,0.7953 -0.07286,0.36277 -0.362769,0.36277 -0.220142,0 -0.542602,-0.86817 -0.275953,-0.37827 -0.651124,-0.57981 0,-0.093 -0.361218,-0.97668 v -0.17984 q 0,-0.78289 2.026233,-1.30379 0.441834,-0.10852 1.049548,-0.14418 z"
         id="path340"
         style="font-size:3.175px;font-family:'Drunk Handwriting';-inkscape-font-specification:'Drunk Handwriting';stroke-width:0.264583;fill:#ffffff;fill-opacity:1" />
      <path
         d="m 54.919847,102.30777 0.0353,0.0118 q 0.588301,0.19608 1.109994,2.39138 0.366246,1.07315 0.239776,1.4526 -0.132353,0.3971 -0.85841,0.28584 -1.087368,-0.43926 -2.447814,-0.8927 -0.149025,0.2167 -0.57257,1.14426 -0.182366,0.1304 -0.330911,0.0809 -0.247079,-0.17553 -0.160324,-0.43582 0.06617,-0.19854 0.537268,-1.15601 0.0049,-0.24022 0.02353,-0.29611 0.429932,-0.37799 0.456894,-0.45889 1.314277,-2.19291 1.579012,-2.10467 0.157367,-0.0995 0.388275,-0.0226 z m -1.485853,2.51648 q 1.687926,0.3338 1.955603,0.42302 l 0.0353,0.0118 q 0.06765,0.0226 0.0902,-0.0451 -0.412836,-1.55603 -0.777111,-2.24285 -0.224041,0.074 -1.15595,1.52175 z"
         id="path342"
         style="font-size:3.175px;font-family:'Drunk Handwriting';-inkscape-font-specification:'Drunk Handwriting';stroke-width:0.264583;fill:#ffffff;fill-opacity:1" />
      <path
         d="m 57.697317,102.27995 q 1.075903,0 2.134753,1.01389 0.325562,0.39687 0.325562,0.75964 0,0.88212 -1.627808,2.06189 -1.030945,0.65112 -1.627808,0.65112 -0.148828,-0.0496 -0.217041,-0.17983 v -0.0729 q 0,-0.22169 0.398426,-0.43409 -0.02946,-0.14572 -0.07286,-0.14572 l 0.03566,-0.43408 v -0.65113 q 0,-0.64027 -0.252698,-1.91771 v -0.0357 q 0,-0.49454 0.903821,-0.61546 z m -0.252698,0.79685 q 0.217041,1.45727 0.217041,2.31458 l -0.03566,0.32557 q 0.341065,0 1.483631,-1.12087 0.325561,-0.38602 0.325561,-0.57825 v -0.0729 q 0,-0.45268 -1.230933,-0.94103 l -0.469738,-0.0729 q -0.289905,0 -0.289905,0.14573 z"
         id="path344"
         style="font-size:3.175px;font-family:'Drunk Handwriting';-inkscape-font-specification:'Drunk Handwriting';stroke-width:0.264583;fill:#ffffff;fill-opacity:1" />
      <path
         d="m 61.500186,103.22097 q 0.07131,0 0.398425,0.18139 1.122412,0.2465 1.122412,1.41077 0,1.14566 -1.193725,1.91771 -0.280603,0.10852 -0.506946,0.10852 h -0.108521 q -0.615466,0 -0.941028,-0.83251 -0.06201,-0.19068 -0.10852,-0.5426 0,-1.66037 1.193726,-2.24328 z m -0.57826,2.17041 q 0,0.524 0.361219,0.68833 0.499194,0 0.905371,-0.90537 0.03566,-0.24649 0.03566,-0.39687 0,-0.62632 -0.615467,-0.86817 h -0.07131 q -0.615467,0.35037 -0.615467,1.48208 z"
         id="path346"
         style="font-size:3.175px;font-family:'Drunk Handwriting';-inkscape-font-specification:'Drunk Handwriting';stroke-width:0.264583;fill:#ffffff;fill-opacity:1" />
      <path
         d="m 64.017861,102.56985 q 0.325561,0.0465 0.325561,0.32556 -0.469738,1.61541 -0.469738,2.31614 v 0.14418 q 0,0.46974 1.012341,0.46974 h 0.68833 q 0.505395,0 0.505395,0.2899 -0.130224,0.43408 -1.265039,0.43408 0,0.0372 -0.11007,0.0372 -1.148768,0 -1.482081,-0.83251 -0.07286,-0.25114 -0.07286,-0.43408 v -0.0372 q 0.0248,-1.08365 0.615466,-2.64014 z"
         id="path348"
         style="font-size:3.175px;font-family:'Drunk Handwriting';-inkscape-font-specification:'Drunk Handwriting';stroke-width:0.264583;fill:#ffffff;fill-opacity:1" />
      <path
         d="m 68.62223,102.53419 q 0.31471,0 0.47129,0.2527 v 0.14418 q 0,0.32711 -0.832508,0.32711 -0.759643,0.29766 -0.759643,0.39688 2.097546,1.08985 2.097546,1.91771 0,0.84181 -1.410767,1.0852 -0.237194,0.0372 -0.469738,0.0372 h -0.289905 q -1.00769,0 -1.193726,-0.65267 v -0.21704 q 0.299207,-1.12086 0.795301,-1.12086 0.05736,0 0.145727,0.14417 v 0.14573 q -0.181384,0.49299 -0.181384,0.72244 0.02325,0.10852 0.289905,0.10852 h 0.615466 q 0.744141,0 0.939478,-0.32556 -0.406177,-0.62942 -1.26659,-0.97669 -0.939477,-0.52865 -0.939477,-0.90382 0,-0.77515 1.809192,-1.04955 z"
         id="path350"
         style="font-size:3.175px;font-family:'Drunk Handwriting';-inkscape-font-specification:'Drunk Handwriting';stroke-width:0.264583;fill:#ffffff;fill-opacity:1" />
      <path
         d="m 71.217422,101.99159 h 0.03721 q 0.620117,0 1.809192,1.91771 0.686779,0.90228 0.686779,1.30225 0,0.41858 -0.723986,0.5426 -1.170472,-0.0729 -2.604493,-0.0729 -0.07286,0.2527 -0.181384,1.26659 -0.131775,0.18138 -0.288354,0.18138 -0.289905,-0.0884 -0.289905,-0.36277 0,-0.20928 0.144177,-1.26658 -0.07131,-0.22945 -0.07131,-0.28836 0.288354,-0.49454 0.288354,-0.57981 0.553455,-2.49597 0.832507,-2.49597 0.117823,-0.14418 0.361219,-0.14418 z m -0.613916,2.85719 q 1.706872,-0.21704 1.989026,-0.21704 h 0.03721 q 0.07131,0 0.07131,-0.0713 -0.883667,-1.34566 -1.446423,-1.88206 -0.189136,0.14108 -0.615467,1.80919 z"
         id="path352"
         style="font-size:3.175px;font-family:'Drunk Handwriting';-inkscape-font-specification:'Drunk Handwriting';stroke-width:0.264583;fill:#ffffff;fill-opacity:1" />
      <path
         d="m 78.020107,102.93107 h 0.144177 q 0.06356,0 0.108521,0.18138 -0.79375,2.78588 -1.085205,2.78588 0,0.0977 -0.469739,0.18138 -0.672827,0 -1.266589,-1.6278 -0.229444,-0.5209 -0.398425,-0.61547 -0.288355,0.23099 -0.469739,1.22938 -0.06356,1.62936 -0.361219,1.62936 h -0.10852 q -0.289905,0 -0.289905,-0.50694 0,-1.71928 0.68678,-2.78588 0.288354,-0.28836 0.542603,-0.32556 0.686779,0 1.266589,1.62781 0.308508,0.44493 0.398425,0.46973 0.244946,-0.37362 0.651123,-1.3379 0.471289,-0.8108 0.651123,-0.90537 z"
         id="path354"
         style="font-size:3.175px;font-family:'Drunk Handwriting';-inkscape-font-specification:'Drunk Handwriting';stroke-width:0.264583;fill:#ffffff;fill-opacity:1" />
      <path
         d="m 78.900673,102.56985 q 0.325562,0.0465 0.325562,0.32556 -0.469739,1.61541 -0.469739,2.31614 v 0.14418 q 0,0.46974 1.012341,0.46974 h 0.68833 q 0.505396,0 0.505396,0.2899 -0.130225,0.43408 -1.265039,0.43408 0,0.0372 -0.110071,0.0372 -1.148767,0 -1.48208,-0.83251 -0.07286,-0.25114 -0.07286,-0.43408 v -0.0372 q 0.02481,-1.08365 0.615467,-2.64014 z"
         id="path356"
         style="font-size:3.175px;font-family:'Drunk Handwriting';-inkscape-font-specification:'Drunk Handwriting';stroke-width:0.264583;fill:#ffffff;fill-opacity:1" />
      <path
         d="m 85.760719,102.67837 h 0.07286 q 0.7953,0 1.085205,0.43408 0,0.0388 0.03566,0.10852 0,0.25425 -0.396875,0.32557 -0.393775,-0.14418 -0.506946,-0.14418 h -0.252698 q -0.392224,0 -0.79685,1.04955 0.03721,0 0.03721,0.0357 1.612304,-0.14417 2.567285,-0.18138 0.325561,0 0.434082,0.25425 0,0.39222 -1.663464,0.46974 -1.627808,0.12402 -1.627808,0.21704 -0.03721,0.24804 -0.03721,0.39842 v 0.0713 q 0,0.43408 0.978235,0.43408 0.254248,0 1.012341,-0.14418 0.181384,0.0465 0.181384,0.10852 v 0.18139 q -0.48059,0.57826 -1.410766,0.57826 -1.520838,0 -1.520838,-1.22939 0.03721,-0.32091 0.03721,-0.39842 h -0.506945 q -0.325562,-0.0465 -0.325562,-0.32556 v -0.10852 q 0.120923,-0.2527 0.469739,-0.2527 h 0.398425 q 0.227893,0 0.289905,-0.43408 0.578259,-1.44798 1.446423,-1.44798 z"
         id="path358"
         style="font-size:3.175px;font-family:'Drunk Handwriting';-inkscape-font-specification:'Drunk Handwriting';stroke-width:0.264583;fill:#ffffff;fill-opacity:1" />
      <path
         d="m 90.113943,102.85976 q 0.469738,0.045 0.469738,0.36121 v 0.0729 q 0,0.19689 -0.179834,0.2899 h -0.254248 q -0.03566,0 -0.03566,-0.0372 -0.655774,0 -1.158069,1.01389 v 0.2527 q 0,0.40927 0.868164,0.86816 l 0.362768,0.0357 q 0.469739,0 0.469739,-0.54261 -0.398425,-0.24029 -0.398425,-0.32556 v -0.17983 q 0,-0.18139 0.796851,-0.47129 0.274401,0 0.469738,0.39842 0,0.73174 -0.434082,1.44643 -0.379822,0.36277 -0.976684,0.36277 -0.775147,0 -1.592151,-0.83251 -0.325562,-0.49144 -0.325562,-0.86816 0,-1.01235 1.337903,-1.73633 0.42168,-0.10852 0.57981,-0.10852 z"
         id="path360"
         style="font-size:3.175px;font-family:'Drunk Handwriting';-inkscape-font-specification:'Drunk Handwriting';stroke-width:0.264583;fill:#ffffff;fill-opacity:1" />
      <path
         style="stroke-width:0.264583;fill:#ffffff;fill-opacity:1"
         id="path220"
         d="m 62.533892,103.60781 c -0.487559,0.64148 -0.967888,1.28644 -1.410819,1.95983 -0.18736,0.26905 -0.34952,0.56244 -0.573128,0.80505 -0.04737,0.0514 -0.138395,0.12626 -0.190566,0.17082 -0.162898,0.12926 -0.08107,0.063 -0.245374,0.199 -0.218223,0.34846 0.274582,0.65708 0.492805,0.30861 v 0 c 0.165221,-0.13497 0.08231,-0.0689 0.248676,-0.19833 0.07723,-0.0664 0.127648,-0.10445 0.193718,-0.18187 0.214894,-0.25179 0.367313,-0.55126 0.550529,-0.82479 0.434535,-0.68002 0.908248,-1.33307 1.442979,-1.93862 0.211926,-0.35979 -0.296894,-0.6595 -0.50882,-0.2997 z" />
      <path
         style="stroke-width:0.264583;fill:#ffffff;fill-opacity:1"
         id="path230"
         d="m 81.931689,106.81063 c 0.285522,-0.43176 0.652669,-0.79966 1.01731,-1.16377 0.318341,-0.32884 0.691118,-0.59265 1.052245,-0.87053 0.262152,-0.19217 0.513164,-0.39413 0.744344,-0.62272 0.226219,-0.21549 0.463439,-0.41881 0.734465,-0.57553 0.09368,-0.0681 0.203385,-0.10392 0.307091,-0.15222 0.308057,-0.46547 -0.350215,-0.90112 -0.65827,-0.43566 v 0 c -0.104632,0.049 -0.210862,0.0952 -0.304747,0.16387 -0.268187,0.1698 -0.508328,0.37686 -0.739264,0.59402 -0.229574,0.22585 -0.481965,0.42079 -0.73755,0.61619 -0.359243,0.28187 -0.72367,0.55807 -1.040733,0.88874 -0.369898,0.36765 -0.733835,0.74267 -1.051354,1.15751 -0.282916,0.47833 0.393547,0.87843 0.676463,0.4001 z" />
    </g>
  </g>
</svg>
